# Blender v2.79 (sub 0) OBJ File: 'room.blend'
# www.blender.org
mtllib model.mtl
o Window_glass_Cube.037
v -17.369677 -2.696692 -13.100533
v -17.369677 12.489112 -13.100533
v -17.369677 -2.696692 -17.951553
v -17.369677 12.489112 -17.951553
v -17.053305 -2.696692 -13.100533
v -17.053305 12.489112 -13.100533
v -17.053305 -2.696692 -17.951553
v -17.053305 12.489112 -17.951553
v -17.369677 -2.696692 -7.827474
v -17.369677 12.489112 -7.827474
v -17.369677 -2.696692 -12.678493
v -17.369677 12.489112 -12.678493
v -17.053305 -2.696692 -7.827474
v -17.053305 12.489112 -7.827474
v -17.053305 -2.696692 -12.678493
v -17.053305 12.489112 -12.678493
v -17.369677 -2.696692 -2.554415
v -17.369677 12.489112 -2.554415
v -17.369677 -2.696692 -7.405435
v -17.369677 12.489112 -7.405435
v -17.053305 -2.696692 -2.554415
v -17.053305 12.489112 -2.554415
v -17.053305 -2.696692 -7.405435
v -17.053305 12.489112 -7.405435
v -17.369677 -2.696692 2.718645
v -17.369677 12.489112 2.718645
v -17.369677 -2.696692 -2.132375
v -17.369677 12.489112 -2.132375
v -17.053305 -2.696692 2.718645
v -17.053305 12.489112 2.718645
v -17.053305 -2.696692 -2.132375
v -17.053305 12.489112 -2.132375
v -17.369677 -2.696692 7.991703
v -17.369677 12.489112 7.991703
v -17.369677 -2.696692 3.140684
v -17.369677 12.489112 3.140684
v -17.053305 -2.696692 7.991703
v -17.053305 12.489112 7.991703
v -17.053305 -2.696692 3.140684
v -17.053305 12.489112 3.140684
vt 1.000000 0.000000
vt 0.000000 1.000000
vt 0.000000 0.000000
vt 1.000000 0.000000
vt 0.000000 1.000000
vt 0.000000 0.000000
vt 1.000000 0.000000
vt 0.000000 1.000000
vt 0.000000 0.000000
vt 1.000000 0.000000
vt 0.000000 1.000000
vt 0.000000 0.000000
vt 1.000000 0.000000
vt 0.000000 1.000000
vt 0.000000 0.000000
vt 1.000000 0.000000
vt 0.000000 1.000000
vt 0.000000 0.000000
vt 1.000000 0.000000
vt 0.000000 1.000000
vt 0.000000 0.000000
vt 1.000000 0.000000
vt 0.000000 1.000000
vt 0.000000 0.000000
vt 1.000000 0.000000
vt 0.000000 1.000000
vt 0.000000 0.000000
vt 1.000000 0.000000
vt 0.000000 1.000000
vt 0.000000 0.000000
vt 1.000000 0.000000
vt 0.000000 1.000000
vt 0.000000 0.000000
vt 1.000000 0.000000
vt 0.000000 1.000000
vt 0.000000 0.000000
vt 1.000000 0.000000
vt 0.000000 1.000000
vt 0.000000 0.000000
vt 1.000000 0.000000
vt 0.000000 1.000000
vt 0.000000 0.000000
vt 1.000000 0.000000
vt 0.000000 1.000000
vt 0.000000 0.000000
vt 1.000000 0.000000
vt 0.000000 1.000000
vt 0.000000 0.000000
vt 1.000000 0.000000
vt 0.000000 1.000000
vt 0.000000 0.000000
vt 1.000000 0.000000
vt 0.000000 1.000000
vt 0.000000 0.000000
vt 1.000000 0.000000
vt 0.000000 1.000000
vt 0.000000 0.000000
vt 1.000000 0.000000
vt 0.000000 1.000000
vt 0.000000 0.000000
vt 1.000000 0.000000
vt 0.000000 1.000000
vt 0.000000 0.000000
vt 1.000000 0.000000
vt 0.000000 1.000000
vt 0.000000 0.000000
vt 1.000000 0.000000
vt 0.000000 1.000000
vt 0.000000 0.000000
vt 1.000000 0.000000
vt 0.000000 1.000000
vt 0.000000 0.000000
vt 1.000000 0.000000
vt 0.000000 1.000000
vt 0.000000 0.000000
vt 1.000000 1.000000
vt 1.000000 1.000000
vt 1.000000 1.000000
vt 1.000000 1.000000
vt 1.000000 1.000000
vt 1.000000 1.000000
vt 1.000000 1.000000
vt 1.000000 1.000000
vt 1.000000 1.000000
vt 1.000000 1.000000
vt 1.000000 1.000000
vt 1.000000 1.000000
vt 1.000000 1.000000
vt 1.000000 1.000000
vt 1.000000 1.000000
vt 1.000000 1.000000
vt 1.000000 1.000000
vt 1.000000 1.000000
vt 1.000000 1.000000
vt 1.000000 1.000000
vt 1.000000 1.000000
vt 1.000000 1.000000
vt 1.000000 1.000000
vt 1.000000 1.000000
vt 1.000000 1.000000
vn -1.0000 0.0000 0.0000
vn 0.0000 0.0000 -1.0000
vn 1.0000 0.0000 0.0000
vn 0.0000 0.0000 1.0000
vn 0.0000 -1.0000 0.0000
vn 0.0000 1.0000 0.0000
usemtl None
s off
f 2/1/1 3/2/1 1/3/1
f 4/4/2 7/5/2 3/6/2
f 8/7/3 5/8/3 7/9/3
f 6/10/4 1/11/4 5/12/4
f 7/13/5 1/11/5 3/6/5
f 4/4/6 6/14/6 8/15/6
f 10/16/1 11/17/1 9/18/1
f 12/19/2 15/20/2 11/21/2
f 16/22/3 13/23/3 15/24/3
f 14/25/4 9/26/4 13/27/4
f 15/28/5 9/26/5 11/21/5
f 12/19/6 14/29/6 16/30/6
f 18/31/1 19/32/1 17/33/1
f 20/34/2 23/35/2 19/36/2
f 24/37/3 21/38/3 23/39/3
f 22/40/4 17/41/4 21/42/4
f 23/43/5 17/41/5 19/36/5
f 20/34/6 22/44/6 24/45/6
f 26/46/1 27/47/1 25/48/1
f 28/49/2 31/50/2 27/51/2
f 32/52/3 29/53/3 31/54/3
f 30/55/4 25/56/4 29/57/4
f 31/58/5 25/56/5 27/51/5
f 28/49/6 30/59/6 32/60/6
f 34/61/1 35/62/1 33/63/1
f 36/64/2 39/65/2 35/66/2
f 40/67/3 37/68/3 39/69/3
f 38/70/4 33/71/4 37/72/4
f 39/73/5 33/71/5 35/66/5
f 36/64/6 38/74/6 40/75/6
f 2/1/1 4/76/1 3/2/1
f 4/4/2 8/77/2 7/5/2
f 8/7/3 6/78/3 5/8/3
f 6/10/4 2/79/4 1/11/4
f 7/13/5 5/80/5 1/11/5
f 4/4/6 2/79/6 6/14/6
f 10/16/1 12/81/1 11/17/1
f 12/19/2 16/82/2 15/20/2
f 16/22/3 14/83/3 13/23/3
f 14/25/4 10/84/4 9/26/4
f 15/28/5 13/85/5 9/26/5
f 12/19/6 10/84/6 14/29/6
f 18/31/1 20/86/1 19/32/1
f 20/34/2 24/87/2 23/35/2
f 24/37/3 22/88/3 21/38/3
f 22/40/4 18/89/4 17/41/4
f 23/43/5 21/90/5 17/41/5
f 20/34/6 18/89/6 22/44/6
f 26/46/1 28/91/1 27/47/1
f 28/49/2 32/92/2 31/50/2
f 32/52/3 30/93/3 29/53/3
f 30/55/4 26/94/4 25/56/4
f 31/58/5 29/95/5 25/56/5
f 28/49/6 26/94/6 30/59/6
f 34/61/1 36/96/1 35/62/1
f 36/64/2 40/97/2 39/65/2
f 40/67/3 38/98/3 37/68/3
f 38/70/4 34/99/4 33/71/4
f 39/73/5 37/100/5 33/71/5
f 36/64/6 34/99/6 38/74/6
